<svg width="397" height="414" viewBox="0 0 397 414" fill="none" xmlns="http://www.w3.org/2000/svg">
<g clip-path="url(#clip0_125_977)">
<path d="M32.44 266.47C32.1119 265.925 31.6389 265.483 31.0739 265.191C30.5088 264.9 29.8739 264.772 29.24 264.82L16.76 266.46C16.1335 266.569 15.5503 266.852 15.0766 267.277C14.6028 267.701 14.2575 268.249 14.08 268.86L0.0799861 326.86C-0.00719152 327.099 -0.0278795 327.356 0.0201365 327.606C0.0681526 327.855 0.183065 328.086 0.352573 328.275C0.522081 328.464 0.739804 328.604 0.982434 328.679C1.22506 328.753 1.48347 328.761 1.72999 328.7L13.73 327.13C14.3562 327.014 14.9387 326.73 15.4147 326.307C15.8906 325.884 16.2417 325.338 16.43 324.73L18.1 318.13C18.2883 317.522 18.6394 316.977 19.1153 316.554C19.5912 316.13 20.1738 315.846 20.8 315.73L37.69 313.52C38.3226 313.471 38.9563 313.6 39.5198 313.891C40.0834 314.183 40.5544 314.626 40.88 315.17L44 321.1C44.3256 321.645 44.7966 322.088 45.3602 322.379C45.9237 322.671 46.5574 322.799 47.19 322.75L59.29 321.17C59.5406 321.165 59.7854 321.094 59.9991 320.963C60.2129 320.832 60.3878 320.646 60.506 320.425C60.6242 320.204 60.6813 319.955 60.6714 319.705C60.6616 319.454 60.5851 319.211 60.45 319L32.44 266.47ZM32 302.28L23.52 303.39C23.269 303.446 23.0079 303.435 22.7624 303.359C22.5169 303.282 22.2954 303.144 22.1199 302.956C21.9443 302.768 21.8206 302.538 21.761 302.288C21.7014 302.038 21.7079 301.777 21.78 301.53L24.78 286.12C24.9012 285.389 25.0716 284.668 25.29 283.96C25.6604 284.608 25.9942 285.275 26.29 285.96L33.2 300C33.3385 300.221 33.4166 300.475 33.4264 300.735C33.4362 300.996 33.3775 301.255 33.256 301.485C33.1345 301.716 32.9546 301.911 32.7342 302.051C32.5137 302.19 32.2606 302.269 32 302.28Z" fill="#010101"/>
<path d="M101.11 304.35L86.91 305.61C86.623 305.635 86.334 305.602 86.0594 305.515C85.7849 305.428 85.5302 305.288 85.3101 305.102C85.0899 304.916 84.9086 304.689 84.7764 304.433C84.6443 304.177 84.564 303.897 84.54 303.61L80.82 261.55C80.7666 260.972 80.4881 260.439 80.0447 260.064C79.6013 259.69 79.0285 259.505 78.45 259.55L67.33 260.55C67.0434 260.573 66.7641 260.652 66.5082 260.783C66.2523 260.914 66.0248 261.094 65.8389 261.314C65.653 261.533 65.5123 261.787 65.425 262.061C65.3377 262.335 65.3054 262.624 65.33 262.91L70.21 318.08C70.234 318.367 70.3143 318.647 70.4464 318.903C70.5786 319.159 70.7599 319.386 70.9801 319.572C71.2002 319.758 71.4549 319.898 71.7294 319.985C72.004 320.072 72.293 320.105 72.58 320.08L102.25 317.46C102.829 317.409 103.364 317.131 103.739 316.687C104.113 316.243 104.297 315.669 104.25 315.09L103.47 306.34C103.419 305.764 103.142 305.231 102.7 304.858C102.258 304.486 101.686 304.303 101.11 304.35Z" fill="#010101"/>
<path d="M129 269.11L143.08 268.33C143.657 268.294 144.196 268.032 144.581 267.602C144.967 267.172 145.167 266.607 145.14 266.03L144.65 257.25C144.614 256.673 144.352 256.134 143.922 255.749C143.492 255.363 142.927 255.163 142.35 255.19L112.76 256.83C112.182 256.864 111.642 257.124 111.256 257.555C110.87 257.986 110.67 258.552 110.7 259.13L113.7 314.43C113.736 315.008 113.999 315.549 114.431 315.935C114.864 316.321 115.431 316.52 116.01 316.49L145.59 314.86C146.168 314.826 146.708 314.566 147.094 314.135C147.48 313.704 147.68 313.138 147.65 312.56L147.17 303.79C147.136 303.212 146.876 302.672 146.445 302.286C146.014 301.9 145.448 301.7 144.87 301.73L130.79 302.5C130.212 302.53 129.646 302.33 129.215 301.944C128.784 301.558 128.524 301.018 128.49 300.44L128.16 294.52C128.13 293.942 128.33 293.376 128.716 292.945C129.102 292.514 129.642 292.254 130.22 292.22L143.35 291.49C143.928 291.456 144.468 291.196 144.854 290.765C145.24 290.334 145.44 289.768 145.41 289.19L144.93 280.42C144.894 279.843 144.633 279.302 144.203 278.915C143.773 278.528 143.208 278.325 142.63 278.35L129.5 279.08C128.922 279.11 128.356 278.91 127.925 278.524C127.494 278.138 127.234 277.597 127.2 277.02L126.89 271.41C126.874 271.12 126.916 270.829 127.014 270.555C127.112 270.281 127.264 270.03 127.46 269.815C127.657 269.601 127.894 269.428 128.159 269.307C128.423 269.186 128.709 269.119 129 269.11Z" fill="#010101"/>
<path d="M175.23 267.42L189.63 267.13C190.209 267.117 190.759 266.875 191.161 266.457C191.562 266.039 191.781 265.479 191.77 264.9L191.59 256.12C191.577 255.541 191.335 254.99 190.917 254.589C190.499 254.188 189.939 253.969 189.36 253.98L159.43 254.59C158.852 254.606 158.303 254.848 157.902 255.266C157.502 255.683 157.282 256.241 157.29 256.82L158.42 312.17C158.436 312.748 158.679 313.297 159.096 313.697C159.513 314.098 160.072 314.318 160.65 314.31L171.81 314.08C172.387 314.067 172.936 313.826 173.337 313.41C173.738 312.995 173.958 312.437 173.95 311.86L173.56 292.78C173.549 292.201 173.768 291.641 174.17 291.223C174.571 290.805 175.121 290.563 175.7 290.55L188.36 290.29C188.939 290.277 189.489 290.035 189.891 289.617C190.292 289.199 190.511 288.639 190.5 288.06L190.32 279.28C190.304 278.702 190.061 278.153 189.644 277.752C189.227 277.352 188.668 277.132 188.09 277.14L175.43 277.4C174.851 277.411 174.291 277.191 173.873 276.79C173.455 276.389 173.213 275.839 173.2 275.26L173.09 269.65C173.079 269.071 173.298 268.511 173.7 268.093C174.101 267.675 174.651 267.433 175.23 267.42Z" fill="#010101"/>
<path d="M238.76 306.06L240.96 312.4C241.196 312.99 241.593 313.501 242.106 313.876C242.619 314.251 243.227 314.474 243.86 314.52L256.05 314.8C256.301 314.833 256.557 314.798 256.79 314.699C257.023 314.599 257.225 314.438 257.374 314.234C257.523 314.029 257.615 313.788 257.639 313.535C257.663 313.283 257.618 313.029 257.51 312.8L237.88 256.67C237.641 256.08 237.242 255.569 236.728 255.195C236.213 254.82 235.605 254.597 234.97 254.55L222.39 254.25C221.754 254.275 221.138 254.476 220.609 254.828C220.08 255.181 219.658 255.673 219.39 256.25L196.67 311.38C196.549 311.603 196.49 311.855 196.499 312.109C196.509 312.363 196.587 312.609 196.726 312.822C196.864 313.035 197.057 313.207 197.285 313.319C197.513 313.431 197.767 313.48 198.02 313.46L210.13 313.74C210.765 313.712 211.38 313.511 211.909 313.159C212.438 312.806 212.86 312.316 213.13 311.74L215.78 305.49C216.05 304.914 216.472 304.424 217.001 304.071C217.53 303.719 218.145 303.518 218.78 303.49L235.78 303.89C236.433 303.927 237.061 304.151 237.59 304.536C238.118 304.921 238.525 305.45 238.76 306.06ZM231.94 292L223.4 291.8C223.143 291.82 222.885 291.772 222.652 291.661C222.419 291.549 222.22 291.379 222.074 291.166C221.928 290.953 221.84 290.705 221.821 290.448C221.801 290.191 221.849 289.933 221.96 289.7L227.34 274.94C227.575 274.258 227.849 273.59 228.16 272.94C228.447 273.62 228.688 274.318 228.88 275.03L233.49 290.03C233.574 290.266 233.597 290.519 233.557 290.766C233.517 291.014 233.414 291.247 233.26 291.443C233.105 291.64 232.902 291.795 232.672 291.892C232.441 291.989 232.189 292.026 231.94 292Z" fill="#010101"/>
<path d="M299.6 295C299.442 294.769 299.334 294.507 299.283 294.231C299.232 293.955 299.24 293.672 299.306 293.399C299.372 293.127 299.495 292.871 299.666 292.649C299.837 292.427 300.053 292.243 300.3 292.11C300.3 292.11 311.23 288.69 312.63 277.26C314.56 261.53 295.27 258.17 295.27 258.17C293.894 257.721 292.472 257.429 291.03 257.3L272.22 256C271.648 255.964 271.084 256.153 270.648 256.526C270.213 256.9 269.941 257.429 269.89 258L266 313.27C265.964 313.842 266.153 314.406 266.526 314.842C266.9 315.277 267.429 315.549 268 315.6L279.14 316.38C279.714 316.421 280.28 316.234 280.717 315.86C281.153 315.485 281.424 314.953 281.47 314.38L282.78 295.81C282.805 295.079 282.882 294.35 283.01 293.63C283.424 294.251 283.801 294.895 284.14 295.56L295.06 315.68C295.408 316.245 295.877 316.725 296.435 317.084C296.992 317.444 297.622 317.675 298.28 317.76L313.22 318.81C314.42 318.89 314.85 318.14 314.22 317.14L299.6 295ZM287.34 283.7C286.14 283.7 284.82 283.7 284.41 283.7C284 283.7 283.73 282.7 283.81 281.47L284.55 270.96C284.64 269.76 285.04 268.8 285.46 268.83C285.88 268.86 287.18 269.04 288.37 269.23C288.37 269.23 296.89 270.59 296.44 277.08C295.99 283.57 287.34 283.71 287.34 283.71V283.7Z" fill="#010101"/>
<path d="M394.76 270.25C394.728 269.646 394.489 269.072 394.082 268.624C393.676 268.175 393.128 267.881 392.53 267.79L381.53 266.43C380.893 266.384 380.256 266.512 379.687 266.801C379.118 267.09 378.638 267.529 378.3 268.07L363.75 294.38C363.17 295.43 362.46 295.33 362.18 294.17L355.1 265.17C354.919 264.562 354.572 264.017 354.099 263.595C353.626 263.173 353.044 262.891 352.42 262.78L341.57 261.44C340.966 261.386 340.361 261.537 339.853 261.869C339.345 262.201 338.963 262.695 338.77 263.27L322.62 317.15C322.531 317.407 322.501 317.681 322.534 317.951C322.567 318.221 322.662 318.48 322.81 318.708C322.959 318.936 323.158 319.127 323.392 319.266C323.626 319.405 323.889 319.488 324.16 319.51L335.16 320.87C335.759 320.928 336.36 320.776 336.859 320.44C337.359 320.105 337.727 319.606 337.9 319.03L345.9 289.72C346.074 289.006 346.294 288.305 346.56 287.62C346.815 288.313 347.025 289.021 347.19 289.74L355.47 321.35C355.661 321.958 356.016 322.502 356.496 322.922C356.976 323.342 357.562 323.621 358.19 323.73L359.99 323.95C360.628 323.996 361.267 323.87 361.84 323.583C362.412 323.296 362.896 322.859 363.24 322.32L379.54 293.74C379.89 293.088 380.277 292.457 380.7 291.85C380.777 292.581 380.807 293.315 380.79 294.05L380.87 324.35C380.887 324.949 381.115 325.524 381.514 325.972C381.913 326.42 382.457 326.713 383.05 326.8L394.13 328.18C394.4 328.22 394.676 328.2 394.937 328.121C395.199 328.042 395.439 327.905 395.641 327.721C395.843 327.537 396.002 327.311 396.105 327.058C396.209 326.805 396.255 326.533 396.24 326.26L394.76 270.25Z" fill="#010101"/>
<path d="M226.59 353.75C226.256 353.723 225.921 353.774 225.61 353.899C225.3 354.024 225.022 354.22 224.8 354.47L224.61 354.67C224.501 354.77 224.407 354.884 224.33 355.01L223.92 355.66C223.92 355.74 223.81 355.91 223.76 356.04C223.525 356.329 223.366 356.673 223.3 357.04C223.163 357.433 223.086 357.844 223.07 358.26C223.037 358.778 223.101 359.297 223.26 359.79C223.394 360.168 223.66 360.484 224.01 360.68L224.74 361.09C224.966 361.219 225.22 361.291 225.48 361.3H225.58C226.086 361.306 226.576 361.121 226.95 360.78L227.18 360.61C227.48 360.34 227.71 360 227.68 359.8C227.98 359.53 228.2 359.2 228.15 359.09C228.554 358.627 228.818 358.058 228.91 357.45C229 357.114 229.02 356.763 228.969 356.419C228.917 356.075 228.795 355.745 228.61 355.45L228.43 355.05C228.25 354.702 227.989 354.401 227.669 354.175C227.349 353.949 226.979 353.803 226.59 353.75Z" fill="#010101"/>
<path d="M293 375.57C292.375 375.762 291.817 376.126 291.39 376.62C291.19 376.84 291.04 377 291.05 377C290.728 377.187 290.438 377.423 290.19 377.7C289.889 377.771 289.617 377.931 289.41 378.16C289.29 378.28 289.15 378.4 288.99 378.54C288.823 378.619 288.666 378.716 288.52 378.83L288.33 378.99C288.002 379.138 287.707 379.348 287.46 379.61C287.167 379.837 286.937 380.007 286.77 380.12L285.77 380.67L284.86 381.23L283.61 382.09L283.01 382.35C282.75 382.45 282.4 382.61 281.92 382.83C281.139 383.198 280.384 383.619 279.66 384.09C279.21 384.4 278.66 384.76 278.27 385.04C277.88 385.149 277.504 385.304 277.15 385.5C277.36 385.22 277.62 384.9 278 384.42L279.28 382.21C279.692 381.781 280.061 381.312 280.38 380.81C280.65 380.38 280.9 379.95 281.03 379.7L281.64 378.89C281.882 378.578 282.093 378.243 282.27 377.89C282.5 377.48 282.72 377.01 283.05 376.35C283.226 376.086 283.339 375.785 283.38 375.47C283.511 375.21 283.595 374.929 283.63 374.64C283.63 374.5 283.63 374.06 283.63 373.92C283.536 373.452 283.345 373.01 283.07 372.62C282.656 372.189 282.096 371.929 281.5 371.89H281.08C280.806 371.87 280.531 371.904 280.27 371.99C280.29 371.841 280.29 371.689 280.27 371.54C280.238 371.2 280.125 370.873 279.94 370.586C279.756 370.299 279.505 370.061 279.21 369.89C278.996 369.677 278.762 369.486 278.51 369.32C278.099 369.052 277.641 368.865 277.16 368.77C276.698 368.509 276.188 368.342 275.66 368.28C275.141 368.15 274.599 368.15 274.08 368.28C273.491 368.272 272.905 368.371 272.35 368.57C271.774 368.663 271.211 368.82 270.67 369.04C270.229 369.215 269.812 369.447 269.43 369.73C269.071 369.872 268.735 370.064 268.43 370.3L267.75 370.84C267.57 370.92 267.41 371 267.27 371.05C267.073 371.11 266.893 371.212 266.74 371.35L265.74 372.2C265.585 372.332 265.464 372.5 265.39 372.69C264.951 372.934 264.575 373.277 264.29 373.69L264.05 374.09C263.82 374.3 263.61 374.51 263.33 374.81C263.226 374.903 263.132 375.007 263.05 375.12C262.912 375.306 262.754 375.477 262.58 375.63C262.371 375.818 262.139 375.979 261.89 376.11L260.79 376.91C260.49 377.1 260.31 377.24 260.3 377.24C260.232 377.295 260.168 377.355 260.11 377.42L259.96 377.51C259.466 377.767 258.989 378.054 258.53 378.37C258.16 378.62 257.8 378.83 257.58 378.96C257.332 379.053 257.092 379.163 256.86 379.29C256.697 379.312 256.539 379.359 256.39 379.43C256.12 379.559 255.862 379.713 255.62 379.89H255.48C255.082 379.97 254.688 380.07 254.3 380.19C254.099 380.252 253.89 380.289 253.68 380.3L253.15 380.35C253.024 380.273 252.89 380.209 252.75 380.16V380.11C252.728 379.889 252.681 379.671 252.61 379.46C252.61 379.3 252.61 379.11 252.61 378.85V378.61C252.648 378.476 252.675 378.339 252.69 378.2L254.74 372.08L254.88 370.51C254.896 370.173 254.859 369.835 254.77 369.51C254.77 369.3 254.77 369.03 254.7 368.69C254.676 368.499 254.622 368.314 254.54 368.14L254.31 367.68C254.085 367.277 253.766 366.934 253.38 366.68C253.265 366.537 253.126 366.415 252.97 366.32L252.4 365.97C252.16 365.83 252.26 365.81 251.98 365.8L251.78 365.73C251.53 365.618 251.263 365.55 250.99 365.53H250.4C250.2 365.53 250.01 365.53 249.83 365.53C249.491 365.539 249.155 365.592 248.83 365.69L247.39 366C246.881 366.16 246.397 366.389 245.95 366.68L245.81 366.75C245.945 366.023 245.915 365.274 245.72 364.56C245.581 364.196 245.381 363.858 245.13 363.56C244.843 363.22 244.433 363.008 243.99 362.97C243.802 362.924 243.612 362.887 243.42 362.86C243.068 362.826 242.714 362.892 242.398 363.049C242.081 363.206 241.815 363.449 241.63 363.75C241.47 363.908 241.323 364.079 241.19 364.26C241.035 364.456 240.895 364.664 240.77 364.88C240.319 365.497 239.95 366.169 239.67 366.88L238 369.92C237.879 370.015 237.766 370.119 237.66 370.23C237.485 370.356 237.33 370.508 237.2 370.68C237.027 370.827 236.787 371.057 236.48 371.37C236.252 371.593 236.041 371.834 235.85 372.09L232 374.8C231.746 374.991 231.475 375.159 231.19 375.3C230.812 375.474 230.451 375.682 230.11 375.92C229.526 376.182 228.978 376.518 228.48 376.92C228.188 377.159 227.847 377.33 227.48 377.42C227.05 377.61 226.62 377.81 226.19 378.03C225.912 378.151 225.642 378.288 225.38 378.44C225.065 378.49 224.754 378.563 224.45 378.66C224.33 378.66 224.19 378.73 224.35 378.73C223.912 378.719 223.479 378.819 223.09 379.02C223.242 378.936 223.417 378.901 223.59 378.92C223.325 378.939 223.069 379.029 222.85 379.18C222.614 379.148 222.376 379.148 222.14 379.18C221.915 379.115 221.675 379.115 221.45 379.18L221.1 379.09L220.31 378.61C220.253 378.44 220.179 378.276 220.09 378.12C220.09 377.91 220.09 377.72 220.01 377.56V377.13C220.051 376.892 220.078 376.651 220.09 376.41C220.098 376.232 220.121 376.054 220.16 375.88C220.262 375.465 220.392 375.057 220.55 374.66L221.81 372.66L222.58 370.91C222.681 370.653 222.826 370.416 223.01 370.21C223.284 369.95 223.516 369.65 223.7 369.32C223.987 368.98 224.152 368.554 224.17 368.11C224.344 367.495 224.276 366.836 223.98 366.27L223.71 365.69C223.552 365.231 223.222 364.851 222.79 364.63C222.658 364.489 222.507 364.368 222.34 364.27C222.022 364.13 221.685 364.039 221.34 364C221.061 364.001 220.786 364.058 220.53 364.168C220.274 364.278 220.043 364.439 219.85 364.64C219.779 364.699 219.715 364.766 219.66 364.84L219.25 365.37C218.78 365.713 218.43 366.196 218.25 366.75C217.991 367.225 217.78 367.724 217.62 368.24L217.11 369.17C216.902 369.274 216.704 369.398 216.52 369.54C216.449 369.588 216.382 369.641 216.32 369.7L215.96 369.86C215.705 369.986 215.46 370.133 215.23 370.3L214.55 370.36C214.413 370.381 214.279 370.418 214.15 370.47C213.793 370.578 213.429 370.662 213.06 370.72L212.12 370.91C211.85 370.97 211.72 370.97 211.73 370.98C211.24 370.767 210.726 370.613 210.2 370.52C210.101 370.413 209.986 370.322 209.86 370.25C209.821 370.166 209.774 370.085 209.72 370.01C209.641 369.882 209.551 369.761 209.45 369.65C209.701 369.272 209.859 368.841 209.91 368.39L210.05 368.04C210.353 367.456 210.464 366.791 210.37 366.14C210.282 365.617 210.038 365.132 209.67 364.75C209.574 364.651 209.487 364.544 209.41 364.43C209.252 364.225 209.051 364.057 208.82 363.94C208.41 363.753 207.96 363.668 207.51 363.69C207.091 363.648 206.669 363.725 206.292 363.912C205.915 364.1 205.599 364.39 205.38 364.75C205.531 364.577 205.716 364.438 205.925 364.343C206.134 364.248 206.361 364.2 206.59 364.2C206.274 364.248 205.972 364.361 205.703 364.534C205.435 364.706 205.205 364.933 205.03 365.2C204.953 365.316 204.889 365.44 204.84 365.57C204.722 365.922 204.632 366.283 204.57 366.65C204.57 366.81 204.57 366.97 204.57 367.21C204.454 367.386 204.357 367.574 204.28 367.77C203.845 368.323 203.463 368.915 203.14 369.54C202.844 370.096 202.51 370.63 202.14 371.14L200.14 374.14C200.068 374.257 200.008 374.381 199.96 374.51C199.905 374.656 199.82 374.789 199.71 374.9C199.364 375.289 199.053 375.707 198.78 376.15C198.67 376.357 198.543 376.554 198.4 376.74V376.52C198.4 376.26 198.4 375.97 198.4 375.67C198.4 375.37 198.45 374.94 198.45 374.67V372.67C198.519 372.274 198.553 371.872 198.55 371.47V370.54V369.17C198.533 369.027 198.533 368.883 198.55 368.74C198.545 368.447 198.508 368.155 198.44 367.87L198.38 367.63C198.312 367.294 198.149 366.986 197.91 366.74C197.435 366.318 196.815 366.096 196.18 366.12C196.008 366.126 195.837 366.15 195.67 366.19C195.372 366.2 195.082 366.289 194.83 366.45C194.616 366.526 194.421 366.649 194.26 366.81L193.83 367.26C193.116 367.788 192.477 368.41 191.93 369.11C191.451 369.583 191 370.084 190.58 370.61L189.89 371.47C189.98 371.19 190.07 370.91 190.15 370.63C190.379 370.269 190.573 369.887 190.73 369.49C190.84 369.21 190.95 368.95 191.21 368.36C191.306 368.004 191.383 367.644 191.44 367.28C191.454 367.127 191.454 366.973 191.44 366.82C191.561 366.64 191.658 366.445 191.73 366.24C191.905 365.998 192.049 365.737 192.16 365.46C192.386 364.83 192.386 364.14 192.16 363.51C192.089 363.104 191.919 362.721 191.664 362.396C191.409 362.072 191.078 361.815 190.7 361.65C190.47 361.535 190.217 361.474 189.96 361.47H189.37C188.939 361.514 188.529 361.68 188.19 361.95C187.945 362.204 187.739 362.494 187.58 362.81C187.458 363.053 187.351 363.304 187.26 363.56C187.26 363.61 187.26 363.66 187.26 363.71C187.088 363.842 186.944 364.008 186.838 364.197C186.731 364.386 186.664 364.594 186.64 364.81C186.582 365.149 186.499 365.484 186.39 365.81C186.28 366.09 186.06 366.51 185.71 367.16C185.398 367.831 185.124 368.518 184.89 369.22H184.84C184.376 369.51 183.958 369.867 183.6 370.28L182.96 371C182.444 371.309 182.006 371.734 181.68 372.24C180.383 373.414 179.013 374.506 177.58 375.51C176.359 376.356 175.047 377.063 173.67 377.62C173.288 377.71 172.921 377.855 172.58 378.05C172.381 378.109 172.194 378.203 172.03 378.33L171.48 378.44C171.338 378.478 171.201 378.532 171.07 378.6C170.775 378.593 170.48 378.616 170.19 378.67C169.97 378.673 169.751 378.707 169.54 378.77H169.18C168.94 378.77 168.75 378.77 168.87 378.77C168.667 378.688 168.45 378.643 168.23 378.64C168.054 378.459 167.838 378.322 167.6 378.24C167.6 378.14 167.49 378.06 167.45 377.98L167.13 376.43C167.194 376.297 167.238 376.156 167.26 376.01L167.38 375.26C167.38 375.18 167.44 375.01 167.46 374.88L167.79 374.81C168.227 374.79 168.657 374.691 169.06 374.52L169.55 374.38C169.913 374.266 170.267 374.125 170.61 373.96L171.31 373.81C171.456 373.773 171.597 373.72 171.73 373.65C172.25 373.36 172.73 373.08 173.17 372.8C173.419 372.637 173.692 372.516 173.98 372.44C174.18 372.381 174.369 372.29 174.54 372.17C174.73 372.03 174.92 371.88 175.1 371.72L175.66 371.16C175.895 370.963 176.098 370.73 176.26 370.47C176.503 370.289 176.727 370.085 176.93 369.86C177.346 369.434 177.585 368.866 177.6 368.27C177.663 368.053 177.713 367.833 177.75 367.61C177.817 367.353 177.87 367.093 177.91 366.83C177.938 366.524 177.938 366.216 177.91 365.91C177.907 365.568 177.842 365.229 177.72 364.91C177.677 364.499 177.521 364.108 177.27 363.78C177.175 363.65 177.068 363.529 176.95 363.42C176.549 362.856 175.972 362.441 175.31 362.24C175.139 362.195 174.974 362.128 174.82 362.04C174.576 361.91 174.306 361.838 174.03 361.83H172.54C172.304 361.766 172.052 361.79 171.833 361.899C171.614 362.008 171.442 362.193 171.35 362.42C171.101 362.539 170.869 362.69 170.66 362.87C170.303 363.023 169.967 363.221 169.66 363.46C169.516 363.564 169.385 363.685 169.27 363.82C168.968 364.041 168.677 364.278 168.4 364.53C168.21 364.71 167.92 365 167.5 365.45C166.58 366.484 165.741 367.587 164.99 368.75C164.865 368.985 164.724 369.212 164.57 369.43C164.351 369.591 164.175 369.804 164.06 370.05L163.62 371.05C163.3 371.41 162.96 371.77 162.73 372.05L162.09 372.89C161.873 373.065 161.672 373.259 161.49 373.47L160.68 374.24C160.43 374.53 160.2 374.81 159.97 375.11C159.798 375.303 159.603 375.474 159.39 375.62L158.3 376.5C158.176 376.647 158.031 376.775 157.87 376.88C157.408 377.053 157 377.346 156.69 377.73L155.75 378.19C155.459 378.305 155.211 378.508 155.04 378.77L152.89 379.77C152.594 379.9 152.286 380 151.97 380.07L150.77 380.51C150.421 380.444 150.065 380.414 149.71 380.42L149.6 380.34L149.12 380.17L148.75 379.55C148.704 379.396 148.667 379.239 148.64 379.08C148.643 379.05 148.643 379.02 148.64 378.99C148.644 378.953 148.644 378.917 148.64 378.88L149.64 375.41C149.698 375.113 149.771 374.819 149.86 374.53C149.918 374.361 150.002 374.202 150.11 374.06C150.307 373.751 150.455 373.414 150.55 373.06C150.89 372.618 151.173 372.134 151.39 371.62L151.8 370.69C151.94 370.42 152.11 370.07 152.3 369.69C152.481 369.268 152.575 368.814 152.575 368.355C152.575 367.896 152.481 367.442 152.3 367.02C152.101 366.695 151.835 366.415 151.52 366.2C151.299 366.043 151.065 365.906 150.82 365.79C150.591 365.703 150.343 365.676 150.1 365.71C149.596 365.622 149.077 365.699 148.62 365.93C148.439 366.035 148.244 366.113 148.04 366.16C148.327 365.498 148.497 364.79 148.54 364.07L148.4 362.71C148.305 362.371 148.191 362.037 148.06 361.71C147.814 361.135 147.412 360.64 146.9 360.28C146.724 360.16 146.528 360.076 146.32 360.03L145.56 359.86C145.368 359.835 145.173 359.835 144.98 359.86C144.87 359.86 144.53 359.94 144.37 359.98C144.133 360.001 143.904 360.076 143.7 360.2L142.55 360.88C142.241 361.059 142.001 361.338 141.87 361.67L141.16 363.4C140.896 363.912 140.779 364.486 140.82 365.06L140.87 365.66C140.844 366.093 140.844 366.527 140.87 366.96L140.93 367.78C140.88 367.924 140.84 368.071 140.81 368.22C140.81 368.36 140.69 368.56 140.58 368.83C140.58 368.83 140.37 369.25 140.36 369.29L138.36 372.29C138.235 372.494 138.153 372.722 138.12 372.96C138.12 372.96 138.12 373.03 138.12 373.07L137.86 373.45C137.735 373.561 137.63 373.693 137.55 373.84C137.422 374.073 137.264 374.288 137.08 374.48C136.78 374.8 136.5 375.11 136.25 375.42L136.15 375.55L135 377C134.866 377.168 134.715 377.322 134.55 377.46C134.272 377.677 134.008 377.91 133.76 378.16C133.27 378.6 132.76 379.01 132.34 379.4C131.883 379.779 131.391 380.114 130.87 380.4L128.87 381.88L127.2 382.75C127.392 382.442 127.531 382.104 127.61 381.75C127.76 381.47 127.89 381.19 128.01 380.91C128.198 380.512 128.323 380.087 128.38 379.65C128.5 379.26 128.59 378.9 128.67 378.59L129 376C129.046 375.708 129.046 375.411 129 375.12C129.081 374.526 129.05 373.923 128.91 373.34L128.62 372.14C128.425 371.504 128.184 370.882 127.9 370.28C127.518 369.491 126.952 368.805 126.25 368.28L125.59 367.88C125.205 367.586 124.765 367.372 124.296 367.251C123.828 367.129 123.339 367.101 122.86 367.17L122.33 367.22C122.023 367.256 121.721 367.326 121.43 367.43C121.077 367.528 120.74 367.676 120.43 367.87L119.98 368.12L119.69 368.28C119.799 368.029 119.883 367.768 119.94 367.5L120.19 366.34L120.25 366C120.33 365.79 120.46 365.42 120.64 364.86L121.74 361.33C121.96 360.674 122.144 360.006 122.29 359.33C122.448 358.682 122.662 358.05 122.93 357.44C122.974 357.297 122.998 357.149 123 357C123.164 356.644 123.279 356.267 123.34 355.88L123.81 354.7C123.9 354.488 123.941 354.259 123.93 354.03C123.905 353.712 123.957 353.394 124.08 353.1C124.19 352.889 124.251 352.657 124.26 352.42V351.6C124.27 351.417 124.27 351.233 124.26 351.05C124.365 350.621 124.351 350.172 124.218 349.75C124.086 349.329 123.841 348.952 123.51 348.66C123.19 348.411 122.823 348.23 122.431 348.127C122.04 348.023 121.631 348.001 121.23 348.06C120.712 348.086 120.225 348.312 119.87 348.69C119.564 348.944 119.358 349.298 119.29 349.69C119.17 350.357 119.03 351.023 118.87 351.69L118.38 353.69C118.311 353.935 118.227 354.175 118.13 354.41C117.972 354.834 117.842 355.269 117.74 355.71L117.09 357.5C116.87 358.13 116.67 358.8 116.5 359.5C116.335 359.837 116.224 360.198 116.17 360.57V361.02C115.981 361.439 115.853 361.884 115.79 362.34C115.761 362.535 115.711 362.726 115.64 362.91C115.58 363.08 115.53 363.22 115.51 363.26C115.354 363.549 115.24 363.859 115.17 364.18L113.7 370.38C113.53 371.01 113.35 371.62 113.15 372.21C112.95 372.8 112.75 373.51 112.59 374.16C112.466 374.713 112.305 375.258 112.11 375.79C111.87 376.44 111.66 377.05 111.42 377.79C111.163 378.814 110.828 379.817 110.42 380.79L110.21 382.06C110.09 382.38 110.026 382.718 110.02 383.06L109.71 384.63C109.546 384.938 109.461 385.281 109.461 385.63C109.461 385.979 109.546 386.322 109.71 386.63C109.883 387.152 110.235 387.595 110.703 387.882C111.172 388.17 111.727 388.282 112.27 388.2C112.538 388.164 112.796 388.075 113.03 387.94C113.337 387.771 113.595 387.527 113.78 387.23C113.999 387.107 114.191 386.94 114.344 386.741C114.497 386.542 114.608 386.313 114.67 386.07V385.84C114.737 385.622 114.781 385.397 114.8 385.17C114.889 385.29 114.986 385.403 115.09 385.51L115.38 385.92L116.11 386.92C116.311 387.162 116.579 387.339 116.88 387.43L117.72 387.72C117.902 387.835 118.097 387.929 118.3 388L118.55 388.07C118.67 388.138 118.797 388.192 118.93 388.23C119.25 388.41 119.53 388.51 119.55 388.45C119.692 388.562 119.85 388.649 120.02 388.71C120.341 388.82 120.681 388.864 121.02 388.84C121.256 388.859 121.494 388.859 121.73 388.84C121.963 388.912 122.206 388.946 122.45 388.94H122.99C123.292 388.973 123.598 388.973 123.9 388.94C124.36 388.89 124.78 388.86 125.18 388.84C125.82 388.799 126.45 388.664 127.05 388.44C127.224 388.365 127.405 388.308 127.59 388.27C128.053 388.18 128.505 388.043 128.94 387.86C129.424 387.625 129.881 387.337 130.3 387L130.76 386.64C131.394 386.358 131.989 385.995 132.53 385.56L133.92 384.63C134.541 384.257 135.13 383.832 135.68 383.36C136.16 382.95 136.68 382.54 137.28 382.03C137.74 381.57 138.19 381.11 138.62 380.66C139.05 380.21 139.48 379.75 139.98 379.19L141.24 377.54C141.564 377.259 141.832 376.92 142.03 376.54C142.175 376.282 142.342 376.038 142.53 375.81L142.71 375.48C143.089 375.119 143.312 374.623 143.33 374.1L143.89 373.4C144.09 373.04 144.27 372.7 144.41 372.4C144.511 372.209 144.635 372.03 144.78 371.87C144.899 371.716 145.009 371.556 145.11 371.39H145.23L145.68 371.46C145.626 371.611 145.563 371.758 145.49 371.9C145.327 372.225 145.184 372.559 145.06 372.9C144.835 373.373 144.641 373.861 144.48 374.36C144.379 374.664 144.259 374.961 144.12 375.25C144.03 375.474 143.969 375.71 143.94 375.95C143.841 376.175 143.764 376.41 143.71 376.65C143.705 376.727 143.705 376.803 143.71 376.88C143.651 377.041 143.614 377.209 143.6 377.38C143.506 377.555 143.442 377.744 143.41 377.94C143.32 378.176 143.279 378.428 143.29 378.68C143.318 379.013 143.318 379.347 143.29 379.68C143.323 380.016 143.373 380.349 143.44 380.68C143.458 380.855 143.502 381.027 143.57 381.19L144.12 382.49C144.28 382.755 144.457 383.009 144.65 383.25C144.896 383.574 145.163 383.881 145.45 384.17C145.771 384.436 146.128 384.655 146.51 384.82C146.782 384.95 147.062 385.06 147.35 385.15C147.674 385.28 148.008 385.38 148.35 385.45L149.28 385.69C149.593 385.71 149.907 385.71 150.22 385.69C151.319 385.68 152.409 385.481 153.44 385.1L154.16 384.77L154.82 384.44L155.65 384.2C155.786 384.161 155.916 384.108 156.04 384.04C156.295 383.88 156.571 383.755 156.86 383.67C157.051 383.622 157.231 383.537 157.39 383.42L160.39 381.35C160.595 381.183 160.789 381.003 160.97 380.81C161.2 380.68 161.46 380.52 161.75 380.32C162.043 380.2 162.314 380.031 162.55 379.82L163.23 381.42C163.379 381.766 163.645 382.049 163.98 382.22C164.28 382.39 164.39 382.47 164.39 382.47C164.69 382.734 165.027 382.953 165.39 383.12C165.574 383.21 165.775 383.258 165.98 383.26L166.41 383.34C166.621 383.385 166.828 383.446 167.03 383.52C167.485 383.649 167.957 383.713 168.43 383.71C168.674 383.713 168.918 383.697 169.16 383.66C169.63 383.6 170.11 383.56 170.83 383.52L172.32 383.21L172.77 383.06C173.071 383.003 173.366 382.916 173.65 382.8C174.282 382.654 174.891 382.422 175.46 382.11L176.38 381.6C176.647 381.579 176.906 381.5 177.14 381.37C177.209 381.34 177.273 381.299 177.33 381.25C177.631 381.193 177.905 381.038 178.11 380.81C178.224 380.715 178.344 380.628 178.47 380.55C178.65 380.424 178.845 380.32 179.05 380.24C179.146 380.205 179.237 380.158 179.32 380.1C179.471 380.028 179.616 379.94 179.75 379.84C180.034 379.806 180.306 379.708 180.547 379.554C180.787 379.4 180.99 379.193 181.14 378.95C181.36 378.8 181.48 378.66 181.66 378.52C181.66 378.73 181.55 378.88 181.51 379.1C181.322 379.52 181.263 379.986 181.34 380.44C181.338 380.805 181.413 381.166 181.56 381.5C181.614 381.641 181.685 381.775 181.77 381.9C181.743 382.377 181.881 382.848 182.162 383.235C182.443 383.621 182.848 383.898 183.31 384.02C183.675 384.094 184.048 384.124 184.42 384.11C184.889 384.084 185.338 383.917 185.71 383.63L187.81 381.57C188.673 381.092 189.371 380.364 189.81 379.48C190.078 379.143 190.391 378.843 190.74 378.59C190.965 378.434 191.147 378.225 191.27 377.98C191.353 377.815 191.461 377.663 191.59 377.53C191.79 377.3 192.01 377.07 192.45 376.6C192.608 376.358 192.778 376.124 192.96 375.9L193.43 375.31C193.43 375.57 193.43 375.85 193.37 376.14C193.365 376.474 193.341 376.808 193.3 377.14C193.241 377.635 193.208 378.132 193.2 378.63V379.63C193.176 380.061 193.223 380.494 193.34 380.91C193.343 381.183 193.394 381.454 193.49 381.71C193.506 381.995 193.557 382.277 193.64 382.55C193.64 382.62 193.84 383.06 193.88 383.13C193.956 383.289 194.057 383.434 194.18 383.56L194.54 383.92C194.82 384.172 195.147 384.366 195.502 384.491C195.857 384.617 196.234 384.671 196.61 384.65C196.806 384.661 197.002 384.637 197.19 384.58C197.369 384.571 197.547 384.545 197.72 384.5C198.101 384.374 198.472 384.22 198.83 384.04C199.475 383.716 199.995 383.189 200.31 382.54C200.654 382.319 200.969 382.057 201.25 381.76L202.53 380.2C202.624 380.085 202.701 379.957 202.76 379.82C202.971 379.321 203.265 378.861 203.63 378.46C204.154 377.901 204.593 377.268 204.93 376.58C205.25 376.03 205.57 375.53 205.87 375.1C206.17 374.67 206.34 374.43 206.66 373.99L206.84 374.13C207.103 374.382 207.399 374.598 207.72 374.77C208.021 374.993 208.36 375.159 208.72 375.26C209.199 375.482 209.694 375.669 210.2 375.82C210.847 376.019 211.525 376.094 212.2 376.04C212.73 376.06 213.26 375.996 213.77 375.85L214.58 375.69C214.569 375.79 214.569 375.89 214.58 375.99L214.53 377.1C214.491 377.673 214.569 378.248 214.76 378.79C214.85 379.04 214.92 379.31 215.04 379.79L215.34 380.67C215.49 380.954 215.682 381.214 215.91 381.44L216.22 382.02C216.488 382.538 216.931 382.946 217.47 383.17L218.47 383.88C219.07 384.12 219.47 384.3 219.8 384.39C220.452 384.564 221.126 384.641 221.8 384.62C221.96 384.62 222.15 384.62 222.73 384.62L224.44 384.29C225.307 383.916 226.2 383.602 227.11 383.35C227.608 383.192 228.093 382.995 228.56 382.76C228.905 382.59 229.238 382.4 229.56 382.19L232.19 380.89L232.36 380.79C232.367 381.293 232.505 381.786 232.76 382.22C232.918 382.495 233.095 382.759 233.29 383.01C233.523 383.235 233.794 383.418 234.09 383.55C234.377 383.722 234.699 383.83 235.032 383.867C235.365 383.903 235.702 383.866 236.02 383.76L236.38 383.59C236.787 383.498 237.145 383.255 237.38 382.91L238 382.01C238.211 381.766 238.392 381.497 238.54 381.21C238.697 380.944 238.878 380.693 239.08 380.46C239.403 380.102 239.691 379.713 239.94 379.3L240.46 378.3C240.528 378.159 240.631 378.038 240.76 377.95C240.923 377.852 241.069 377.727 241.19 377.58L246.09 372.69C246.775 372.53 247.385 372.142 247.82 371.59C248.131 371.315 248.512 371.132 248.92 371.06C249.202 370.987 249.49 370.944 249.78 370.93V371.01L249.37 372.17C249.26 372.46 249.13 372.74 249 373.01C248.81 373.411 248.639 373.822 248.49 374.24C248.35 374.7 248.23 375.11 248.1 375.47C247.939 375.957 247.812 376.455 247.72 376.96C247.528 377.826 247.454 378.714 247.5 379.6C247.528 379.996 247.595 380.387 247.7 380.77C247.78 381.056 247.84 381.346 247.88 381.64C247.924 381.884 248.02 382.116 248.16 382.32L248.93 383.32C249.137 383.705 249.445 384.026 249.82 384.25C249.95 384.409 250.11 384.541 250.29 384.64C250.733 384.889 251.224 385.042 251.73 385.09C252.238 385.234 252.762 385.311 253.29 385.32H253.74L255.04 385.16L255.79 385.07C256.206 385.002 256.614 384.895 257.01 384.75L258.22 384.17C258.43 384.08 258.61 384 258.78 383.91L262.13 382.03V382.31C262.143 382.522 262.173 382.733 262.22 382.94C262.262 383.142 262.34 383.335 262.45 383.51C262.45 383.61 262.53 383.73 262.58 383.83C262.711 384.224 262.923 384.587 263.202 384.895C263.481 385.203 263.821 385.45 264.2 385.62C264.566 385.921 264.978 386.161 265.42 386.33C265.574 386.429 265.743 386.504 265.92 386.55L266.79 386.77C267.096 386.845 267.407 386.898 267.72 386.93C268.605 387.02 269.5 386.932 270.35 386.67C270.243 386.851 270.146 387.038 270.06 387.23C270 387.38 269.89 387.61 269.69 387.99L269.2 388.99C269.077 389.253 268.919 389.499 268.73 389.72C268.472 390.038 268.281 390.405 268.17 390.8C267.577 391.113 266.977 391.403 266.37 391.67C265.475 392.057 264.618 392.525 263.81 393.07C262.92 393.5 262.08 393.9 261.27 394.27C260.46 394.64 259.59 395.07 258.88 395.46C257.95 395.91 257.05 396.38 256.16 396.86C255.211 397.379 254.325 398.007 253.52 398.73L251 400.68C250.578 401.07 250.19 401.494 249.84 401.95C249.479 402.431 249.145 402.932 248.84 403.45C248.709 403.69 248.621 403.95 248.58 404.22L248.45 404.54C248.173 405.056 247.981 405.613 247.88 406.19C247.8 406.58 247.72 406.98 247.58 407.77C247.581 408.347 247.672 408.921 247.85 409.47C247.99 409.9 248.15 410.33 248.32 410.74C248.386 410.905 248.481 411.057 248.6 411.19L249.07 411.68C249.393 412.231 249.878 412.667 250.46 412.93C250.688 413.089 250.929 413.23 251.18 413.35C251.524 413.496 251.878 413.616 252.24 413.71L253.35 413.84H253.55C253.77 413.837 253.987 413.793 254.19 413.71C254.44 413.614 254.703 413.557 254.97 413.54C255.148 413.528 255.323 413.491 255.49 413.43C256.47 413.034 257.419 412.566 258.33 412.03C259.154 411.548 259.945 411.014 260.7 410.43L261.84 409.67C262.082 409.453 262.313 409.222 262.53 408.98C262.692 408.806 262.839 408.618 262.97 408.42C263.823 407.794 264.532 406.993 265.05 406.07C266.395 404.517 267.594 402.844 268.63 401.07C268.793 400.748 268.987 400.444 269.21 400.16C269.566 399.721 269.85 399.228 270.05 398.7C270.359 398.232 270.623 397.737 270.84 397.22C271.025 396.796 271.239 396.385 271.48 395.99C271.557 395.786 271.658 395.591 271.78 395.41L272.11 394.96L272.82 394.54C273.304 394.378 273.765 394.152 274.19 393.87C274.47 393.69 274.71 393.51 274.94 393.33L275.51 392.91C275.816 392.736 276.134 392.582 276.46 392.45C277.466 391.866 278.419 391.197 279.31 390.45C280.18 389.76 281.01 389.18 281.44 388.88C282.367 388.642 283.255 388.275 284.08 387.79C284.576 387.488 285.086 387.211 285.61 386.96C285.957 386.889 286.274 386.715 286.52 386.46C286.621 386.397 286.712 386.32 286.79 386.23C286.94 386.072 287.116 385.94 287.31 385.84C287.719 385.692 288.098 385.471 288.43 385.19C289.012 384.918 289.562 384.583 290.07 384.19C290.382 383.955 290.673 383.694 290.94 383.41C291.046 383.299 291.146 383.182 291.24 383.06C291.56 382.909 291.849 382.699 292.09 382.44C292.747 382.07 293.336 381.589 293.83 381.02C294.165 380.891 294.468 380.691 294.718 380.434C294.968 380.176 295.16 379.868 295.28 379.53C295.44 379.122 295.548 378.695 295.6 378.26C295.685 377.692 295.601 377.111 295.36 376.59C295.149 376.17 294.797 375.837 294.366 375.651C293.934 375.464 293.451 375.435 293 375.57ZM123.79 375.8L123.67 377C123.541 377.327 123.431 377.661 123.34 378C123.142 378.332 122.988 378.688 122.88 379.06C122.88 379.24 122.77 379.4 122.88 379.25C122.475 379.747 122.225 380.352 122.16 380.99L121.79 381.59C121.636 381.689 121.501 381.814 121.39 381.96C121.215 382.148 121.085 382.374 121.01 382.62L120.31 382.89C120.151 382.87 119.989 382.87 119.83 382.89H119.68L119.56 382.73C119.324 382.394 119.033 382.1 118.7 381.86C118.558 381.45 118.353 381.065 118.09 380.72L117.74 380.3C117.641 380.134 117.512 379.989 117.36 379.87C117.228 379.764 117.083 379.673 116.93 379.6L117.22 379.09C117.49 378.63 117.78 378.18 118.1 377.73L119.1 376.32L122.02 373.41C122.29 373.33 122.62 373.2 123.02 373.05L123.21 372.94H123.3H123.41L123.47 373.01C123.542 373.223 123.643 373.425 123.77 373.61L123.86 374.48C123.747 374.8 123.702 375.141 123.73 375.48C123.72 375.72 123.74 375.91 123.76 375.84L123.79 375.8ZM188.94 363.8C188.94 363.8 188.94 363.8 188.94 363.75V363.8ZM263 399.82C262.834 399.973 262.704 400.161 262.62 400.37C262.498 400.71 262.315 401.025 262.08 401.3C261.81 401.63 261.48 401.95 260.84 402.59C260.84 402.59 260.6 402.95 260.59 402.95C260.52 403.07 260.457 403.193 260.4 403.32C260.317 403.417 260.227 403.507 260.13 403.59C259.642 403.874 259.186 404.209 258.77 404.59C258.617 404.739 258.441 404.864 258.25 404.96C258.087 405.042 257.939 405.151 257.81 405.28C257.409 405.706 256.926 406.046 256.39 406.28C255.723 406.58 255.057 406.913 254.39 407.28L253.74 407.41H253.17H253.11C252.96 407.41 252.84 407.41 252.93 407.41L252.66 407.29V407.22C252.71 407.072 252.733 406.916 252.73 406.76C252.794 406.613 252.882 406.478 252.99 406.36L254.57 404.79C254.701 404.669 254.806 404.522 254.88 404.36C255.116 404.217 255.332 404.042 255.52 403.84L256.81 402.97C257.228 402.685 257.665 402.431 258.12 402.21C258.84 401.73 259.6 401.29 260.39 400.87C261.18 400.45 262.1 400 262.9 399.61L263.42 399.39L263 399.82ZM276.69 376L274.69 377.85C274.37 378.15 274.05 378.43 273.69 378.7C273.37 378.976 273.036 379.237 272.69 379.48C272.125 379.847 271.616 380.295 271.18 380.81L268.85 381.81C268.731 381.887 268.599 381.941 268.46 381.97C268.281 381.992 268.099 381.992 267.92 381.97L267.4 381.85C267.29 381.68 267.15 381.48 266.97 381.25C266.87 381.127 266.763 381.01 266.65 380.9C266.633 380.707 266.633 380.513 266.65 380.32C266.755 380.087 266.842 379.846 266.91 379.6L268.43 377.36C268.555 377.265 268.685 377.178 268.82 377.1C269.106 376.94 269.365 376.738 269.59 376.5L271.24 375.42C271.583 375.111 271.979 374.867 272.41 374.7C273.01 374.49 273.6 374.26 274.02 374.09L275.02 373.8C275.29 373.71 275.45 373.69 275.4 373.69C275.661 373.688 275.922 373.708 276.18 373.75L276.45 373.81L276.86 374.15C277.297 374.463 277.836 374.603 278.37 374.54L277.78 375.1L277.46 375.38C277.169 375.541 276.909 375.75 276.69 376Z" fill="#010101"/>
<path d="M110.74 118.72C111.74 124.65 111.36 130.61 111.29 136.56C111.19 146.51 110.54 156.47 111.46 166.42C111.56 167.21 111.56 168.01 111.46 168.8C110.81 172.231 110.689 175.742 111.1 179.21C111.586 182.809 111.603 186.456 111.15 190.06C110.67 193.89 113.24 197.06 113 200.73C113 201.03 113.31 201.37 113.51 201.66C116.39 205.9 120.77 207.59 125.51 207.81C130.78 208.06 136.06 208.58 141.34 208.39C153.01 207.97 164.68 208.47 176.34 208.21C185.19 208 194.04 208.12 202.89 208.11C210.01 208.11 217.12 208.33 224.24 208.21C231.36 208.09 238.24 208.44 245.24 208.02C249.16 207.79 253.1 208.52 257 207.73C258.691 207.399 260.426 207.362 262.13 207.62C267.86 208.45 273.38 207.45 278.8 205.62C279.714 205.344 280.56 204.879 281.284 204.255C282.007 203.632 282.592 202.864 283 202C284.872 198.447 285.805 194.475 285.71 190.46C285.11 180.27 285.47 170.08 285.5 159.89C285.5 148.77 285.5 137.64 285.5 126.52V109.9C285.5 96.45 285.99 83 285.57 69.54C285.3 60.98 285.04 52.43 280.42 44.78C280.309 44.56 280.235 44.3236 280.2 44.08C279.169 40.1269 277.015 36.5566 274 33.8C271.71 31.53 269.44 29.21 267.27 26.87C259.55 18.56 249.75 13.44 239.85 8.58C234.78 6.08 229.15 4.58 223.66 3.09C214.94 0.66 206 0 196.92 0C192.84 0 188.92 0.93 184.92 1.54C168.37 4.07 152.68 8.94 138.47 18.11C132.734 21.6345 127.804 26.3261 124 31.88C120.186 37.5627 117.121 43.7134 114.88 50.18C112.662 57.2656 111.45 64.6274 111.28 72.05C111.19 74.13 111.21 76.22 110.97 78.29C110.796 78.8738 110.711 79.4808 110.72 80.09C111.72 85.45 111.38 90.83 111.14 96.22C111.07 97.81 110.36 99.4 110.8 100.96C111.549 104.2 111.671 107.554 111.16 110.84C110.9 113.45 110.29 116.07 110.74 118.72ZM124.74 158.33C124.442 157.018 124.301 155.675 124.32 154.33C124.16 149.14 126.49 145.33 130.53 144.2C135.11 142.89 139.08 146.2 138.53 150.89C138.084 154.255 136.606 157.399 134.3 159.89C133.184 161.11 131.648 161.864 130 162C129.409 162.118 128.801 162.116 128.211 161.994C127.622 161.872 127.062 161.633 126.567 161.291C126.071 160.948 125.65 160.51 125.328 160.001C125.005 159.492 124.788 158.924 124.69 158.33H124.74ZM260.13 192.74C258.527 194.308 256.372 195.184 254.13 195.18C250.39 195.25 246.64 195.26 242.89 195.25C233.557 195.25 224.223 195.213 214.89 195.14H210.47C203.97 195.34 197.47 195.69 190.95 195.41C181.49 195.01 172.04 195.47 162.59 195.25C155.9 195.09 149.21 195.08 142.52 195.01C140.105 194.94 137.765 194.161 135.79 192.77C135.091 192.301 134.55 191.632 134.238 190.85C133.926 190.069 133.857 189.211 134.04 188.39C134.193 187.355 134.532 186.355 135.04 185.44C139.34 178.14 142.91 170.44 147.61 163.36C150.09 159.64 152.54 155.86 155.8 152.73C159.194 149.574 163.396 147.421 167.94 146.51C169.571 146.217 171.145 145.664 172.6 144.87C173.347 144.42 174.228 144.246 175.09 144.38C180.21 145.09 185.24 143.8 190.3 143.45C192.3 143.32 194.2 142.88 196.21 143.19C197.554 143.391 198.926 143.264 200.21 142.82C201.382 142.452 202.614 142.309 203.84 142.4C204.21 142.4 204.74 142.59 204.92 142.4C206.98 140.4 208.76 141.77 210.74 142.62C212.27 143.27 214.03 142.83 215.67 142.69C217.441 142.404 219.257 142.758 220.79 143.69C221.94 144.45 223.37 144.43 224.67 144.79C236.85 148.14 245.37 155.9 251.18 166.88C252.96 170.24 254.62 173.67 256.33 177.07C257.489 179.512 258.929 181.811 260.62 183.92C263.08 186.88 262.86 190.05 260.08 192.74H260.13ZM269.68 162.16C268.348 162.646 266.902 162.726 265.526 162.387C264.149 162.049 262.904 161.308 261.95 160.26C259.868 157.817 258.486 154.855 257.95 151.69C257.43 148.88 259.04 146.32 261.78 145.03C264.78 143.64 267.73 144.03 269.78 146.16C272.44 148.96 273.17 152.45 273.23 156.16C273.18 159.4 272.14 161.18 269.63 162.16H269.68ZM245.91 40C245.818 38.7893 246.105 37.5801 246.73 36.5393C247.355 35.4985 248.288 34.6776 249.4 34.19C250.466 33.6272 251.675 33.3924 252.874 33.5152C254.074 33.638 255.21 34.1129 256.14 34.88C261.033 38.5254 265.031 43.2381 267.83 48.66C269.42 51.73 269.41 55.06 269.23 58.37C269.15 60.03 267.87 61.06 266.38 61.7C264.132 62.7221 261.618 63.0023 259.2 62.5C257.1 62.04 254.97 61.78 252.86 61.41C248.39 60.64 246.58 58.81 245.96 54.33C245.75 52.88 245.71 51.4 245.62 50.33C245.76 46.57 246.05 43.28 245.91 40ZM243.34 75.37C249.85 75.22 256.34 75.37 262.86 75.77C265.525 75.852 268.078 76.8598 270.08 78.62C270.847 79.2376 271.481 80.0044 271.944 80.8742C272.406 81.7439 272.687 82.6985 272.77 83.68C272.98 86.43 273.09 89.18 273.07 91.95C273.02 98.39 273.2 104.83 273.46 111.27C273.631 114.606 273.528 117.951 273.15 121.27C272.54 125.99 270.21 130.2 263.29 130.4C260.48 130.48 257.68 130.98 254.85 131.07C248.76 131.26 243.75 129.23 240.3 124.07C237.65 120.07 235.16 115.99 232.59 111.96C227.93 104.67 222.59 97.85 218.59 90.1C217.559 88.2191 216.808 86.1978 216.36 84.1C215.8 81.01 216.9 78.8 219.84 77.61C223.349 76.2397 227.074 75.5049 230.84 75.44C235 75.22 239.17 75.32 243.34 75.32V75.37ZM212.62 15.59C216.122 15.7524 219.6 16.265 223 17.12C226.77 18.07 229.42 20.63 231.57 23.72C232.175 24.7308 232.448 25.906 232.35 27.08C232.35 30.4 232.35 33.72 232.35 37.61C232.43 41.34 232.35 45.61 232.71 49.93C233.29 56.54 228.39 61.93 221.65 62.39C218.336 62.6049 215.01 62.5246 211.71 62.15C210.099 62.0002 208.593 61.2875 207.455 60.1372C206.318 58.9868 205.622 57.4724 205.49 55.86C204.672 47.7296 204.508 39.5466 205 31.39C205.108 29.1808 204.963 26.9665 204.57 24.79C203.7 19.56 207.34 15.33 212.62 15.59ZM203 90.65C205.69 92.7154 207.822 95.4207 209.2 98.52C210.66 102.19 213.06 105.34 215.33 108.52C217.18 111.13 219 113.75 220.76 116.41C221.806 117.834 222.403 119.538 222.474 121.304C222.546 123.07 222.088 124.816 221.16 126.32C219.16 129.7 216.16 131.42 211.91 131.6L207.66 131C201.22 130.07 194.79 130.88 188.36 131.11C185.655 131.265 182.944 130.926 180.36 130.11C175.71 128.55 173.23 121.34 175.72 116.69C177.075 114.067 178.792 111.646 180.82 109.5C182.724 107.498 184.318 105.223 185.55 102.75C187.59 98.9682 189.931 95.3566 192.55 91.95C195.56 87.91 199.19 87.4 203 90.65ZM166.44 24.59C166.573 23.1315 167.099 21.7364 167.962 20.5531C168.824 19.3698 169.992 18.4425 171.34 17.87C176.11 15.66 181.08 14.58 186.34 16.16C186.992 16.324 187.599 16.6307 188.118 17.0578C188.636 17.4849 189.054 18.0219 189.34 18.63C190.99 22.07 192.09 25.63 191.49 29.47C191.24 31.09 191.75 32.65 191.91 34.23C192.466 40.474 192.092 46.7659 190.8 52.9C189.39 60.02 184.42 62.56 178.01 61.63C175.937 61.3182 173.949 60.5873 172.168 59.4817C170.387 58.3762 168.849 56.9193 167.65 55.2C166.593 53.7356 166.103 51.938 166.27 50.14C166.35 49.29 166.45 48.43 166.51 47.57C166.725 44.6148 166.755 41.649 166.6 38.69C166.227 33.9991 166.173 29.2882 166.44 24.59ZM130.44 45.43C132.25 43.14 134.36 41.07 136.15 38.72C138.335 35.9736 141.044 33.6893 144.12 32C147.9 29.82 153.04 32.83 153.41 37.42C153.429 38.4597 153.369 39.4994 153.23 40.53C153.005 41.5435 152.924 42.5838 152.99 43.62C153.79 47.1 152.92 50.62 153.22 54.07C153.44 56.52 151.22 59.07 148.9 59.65C146.969 59.9888 145.093 60.5841 143.32 61.42C142.596 61.7324 141.803 61.8496 141.02 61.76C139.27 61.53 137.77 62.34 136.24 61.82C135.37 61.53 134.44 61.4 133.6 61.03C126 57.64 125 52.33 130.48 45.43H130.44ZM123.29 107.49C124.43 103.9 124.29 100.23 123.98 96.54C123.786 92.729 124.266 88.9137 125.4 85.27C125.904 83.9534 126.139 82.549 126.09 81.14C125.97 80.14 126.67 79.52 127.44 78.91C131.29 75.91 135.87 75.13 140.54 74.59C143.219 74.2725 145.925 74.249 148.61 74.52C154.83 74.62 160.82 73.89 166.83 73.6C169.09 73.48 171.34 73.16 173.6 73.79C180.01 75.59 182.7 81.53 179.7 87.45C179.1 88.7277 178.387 89.9492 177.57 91.1C170.05 100.92 163.97 111.67 157.72 122.3C156.754 124.126 155.415 125.729 153.791 127.005C152.167 128.282 150.293 129.203 148.29 129.71C143.945 130.77 139.464 131.168 135 130.89C128.31 130.44 124.37 125.89 124.17 118.79C124.08 115.31 124.58 111.79 123.32 108.4C123.233 108.102 123.237 107.786 123.33 107.49H123.29Z" fill="#010101"/>
<path d="M238.24 397.39C224.96 395.414 211.556 394.384 198.13 394.31C184.697 394.384 171.287 395.414 158 397.39C157.572 397.46 157.162 397.613 156.793 397.841C156.424 398.069 156.104 398.368 155.85 398.72C155.597 399.072 155.415 399.47 155.315 399.892C155.216 400.314 155.201 400.752 155.27 401.18C155.34 401.608 155.493 402.018 155.721 402.387C155.949 402.756 156.248 403.076 156.6 403.33C156.952 403.583 157.35 403.765 157.772 403.865C158.194 403.964 158.632 403.98 159.06 403.91C171.974 402.003 185.006 401 198.06 400.91C211.134 400.998 224.186 402.001 237.12 403.91C237.296 403.924 237.474 403.924 237.65 403.91C238.474 403.897 239.263 403.578 239.864 403.014C240.465 402.45 240.834 401.683 240.899 400.862C240.964 400.04 240.72 399.224 240.216 398.573C239.711 397.922 238.982 397.482 238.17 397.34L238.24 397.39Z" fill="#010101"/>
</g>
<defs>
<clipPath id="clip0_125_977">
<rect width="396.27" height="413.86" fill="white"/>
</clipPath>
</defs>
</svg>
