<svg width="60" height="60" viewBox="0 0 60 60" fill="none" xmlns="http://www.w3.org/2000/svg">
<path d="M52.7273 16.8182C52.7273 11.5464 48.4536 7.27273 43.1818 7.27273H16.8182C11.5464 7.27273 7.27273 11.5464 7.27273 16.8182V43.1818C7.27273 48.4536 11.5464 52.7273 16.8182 52.7273H43.1818C48.4536 52.7273 52.7273 48.4536 52.7273 43.1818V16.8182ZM23.5822 17.2976C26.2299 15.9237 29.2439 15.42 32.1946 15.8576L32.7557 15.9526C35.5498 16.4823 38.1249 17.8408 40.142 19.858C42.2935 22.0094 43.696 24.7957 44.1424 27.8054L44.2134 28.3594C44.5136 31.1315 43.9904 33.9355 42.7024 36.4178C41.3286 39.0655 39.1542 41.2122 36.4897 42.5533C33.8254 43.8943 30.8062 44.3614 27.8613 43.8876C24.9163 43.4137 22.1954 42.0232 20.0861 39.9139C17.9768 37.8046 16.5863 35.0837 16.1124 32.1387C15.6386 29.1938 16.1057 26.1746 17.4467 23.5103C18.7878 20.8458 20.9345 18.6714 23.5822 17.2976ZM31.1275 23.0513C29.69 22.8382 28.2217 23.0842 26.9318 23.7536C25.642 24.4229 24.596 25.482 23.9426 26.78C23.2894 28.078 23.0619 29.549 23.2928 30.9837C23.5237 32.4184 24.2006 33.7443 25.2282 34.7718C26.2557 35.7994 27.5816 36.4763 29.0163 36.7072C30.451 36.9381 31.922 36.7106 33.22 36.0574C34.518 35.404 35.5771 34.358 36.2464 33.0682C36.8739 31.8589 37.1295 30.4929 36.9833 29.1424L36.9487 28.8725C36.7312 27.4062 36.0473 26.0491 34.9991 25.0009C34.0164 24.0182 32.7622 23.3555 31.4009 23.0975L31.1275 23.0513ZM44.5259 11.8635L44.7132 11.8688C46.6346 11.9661 48.1622 13.5543 48.1623 15.4998C48.1623 17.4455 46.6347 19.0345 44.7132 19.1317L44.5259 19.1362H44.5002C42.4919 19.1362 40.8638 17.5081 40.8638 15.4998C40.8639 13.4916 42.4919 11.8635 44.5002 11.8635H44.5259ZM60 43.1818C60 52.4702 52.4702 60 43.1818 60H16.8182C7.52976 60 0 52.4702 0 43.1818V16.8182C2.34291e-07 7.52976 7.52976 2.34275e-07 16.8182 0H43.1818C52.4702 0 60 7.52976 60 16.8182V43.1818Z" fill="white"/>
</svg>
