<svg width="64" height="64" viewBox="0 0 64 64" fill="none" xmlns="http://www.w3.org/2000/svg">
<path d="M32 0C49.6731 0 64 14.3269 64 32C64 49.6731 49.6731 64 32 64C14.3269 64 0 49.6731 0 32C0 14.3269 14.3269 0 32 0ZM44.1748 21.4766C42.0973 21.4766 40.3069 21.9711 38.8037 22.9609C37.3005 23.9386 36.2375 25.2895 35.6143 27.0127H35.3027V21.8428H26.7783V50H35.7422V33.9414C35.7544 32.866 35.9503 31.9491 36.3291 31.1914C36.7201 30.434 37.2699 29.8534 37.9785 29.4502C38.6995 29.0347 39.5308 28.8272 40.4717 28.8271C41.8892 28.8271 42.9957 29.2667 43.79 30.1465C44.5966 31.0264 44.9937 32.2492 44.9814 33.8135V50H53.9453V32.0537C53.9575 29.9395 53.5541 28.0941 52.7354 26.5176C51.9288 24.9289 50.7926 23.6944 49.3262 22.8145C47.8719 21.9223 46.1546 21.4766 44.1748 21.4766ZM12.1104 21.8418V49.999H21.0742V21.8418H12.1104ZM16.6016 10C15.3428 10 14.2608 10.4214 13.3564 11.2646C12.4521 12.0957 12 13.0983 12 14.2715C12.0001 15.4568 12.4522 16.4713 13.3564 17.3145C14.2608 18.1455 15.3428 18.5605 16.6016 18.5605C17.8723 18.5605 18.9537 18.1453 19.8457 17.3145C20.75 16.4713 21.2021 15.4568 21.2021 14.2715C21.2021 13.0983 20.7501 12.0957 19.8457 11.2646C18.9537 10.4216 17.8723 10.0001 16.6016 10Z" fill="white"/>
</svg>
