<svg width="34" height="19" viewBox="0 0 34 19" fill="none" xmlns="http://www.w3.org/2000/svg">
<path d="M15.5 4.83301H1.5V16C1.5 16.3094 1.623 16.6064 1.8418 16.8252C2.06057 17.0439 2.35765 17.167 2.66699 17.167H14.333C14.6423 17.167 14.9394 17.0439 15.1582 16.8252C15.377 16.6064 15.5 16.3094 15.5 16V4.83301ZM4.66699 7.66699C4.66699 7.39085 4.89085 7.16699 5.16699 7.16699C5.44298 7.16717 5.66699 7.39096 5.66699 7.66699C5.66708 8.41817 5.96502 9.13868 6.49609 9.66992C7.02745 10.2013 7.74855 10.5 8.5 10.5L8.78027 10.4863C9.42881 10.4219 10.039 10.1348 10.5039 9.66992C11.035 9.13868 11.3329 8.41817 11.333 7.66699C11.333 7.39096 11.557 7.16717 11.833 7.16699C12.1091 7.16699 12.333 7.39085 12.333 7.66699C12.3329 8.68338 11.9295 9.65817 11.2109 10.377C10.5371 11.0508 9.63776 11.448 8.69043 11.4951L8.5 11.5C7.48334 11.5 6.50795 11.0958 5.78906 10.377C5.07045 9.65817 4.66708 8.68338 4.66699 7.66699ZM2.00098 3.83301H14.999L13.25 1.5H3.75L2.00098 3.83301ZM16.5 16C16.5 16.5746 16.2716 17.1259 15.8652 17.5322C15.4589 17.9385 14.9076 18.167 14.333 18.167H2.66699C2.09243 18.167 1.54108 17.9385 1.13477 17.5322C0.728437 17.1259 0.5 16.5746 0.5 16V4.33301C0.50007 4.22498 0.534813 4.11964 0.599609 4.0332L3.09961 0.700195L3.18066 0.615234C3.26949 0.541522 3.38217 0.5 3.5 0.5H13.5L13.6152 0.513672C13.7279 0.540364 13.8295 0.605675 13.9004 0.700195L16.4004 4.0332L16.4434 4.10156C16.4805 4.17261 16.4999 4.25205 16.5 4.33301V16Z" fill="white"/>
<path d="M34 9.2375C34 13.1518 30.9669 16.325 27.2253 16.325C23.4838 16.325 20.4507 13.1518 20.4507 9.2375C20.4507 5.32318 23.4838 2.15 27.2253 2.15C30.9669 2.15 34 5.32318 34 9.2375Z" fill="white"/>
<path d="M26.664 13.09C26.208 13.09 25.815 12.997 25.485 12.811C25.155 12.625 24.9 12.358 24.72 12.01C24.546 11.656 24.459 11.233 24.459 10.741C24.459 10.183 24.534 9.655 24.684 9.157C24.84 8.659 25.059 8.218 25.341 7.834C25.623 7.45 25.962 7.15 26.358 6.934C26.76 6.718 27.204 6.61 27.69 6.61C28.146 6.61 28.536 6.703 28.86 6.889C29.19 7.075 29.442 7.342 29.616 7.69C29.796 8.038 29.886 8.461 29.886 8.959C29.886 9.517 29.808 10.045 29.652 10.543C29.502 11.041 29.286 11.482 29.004 11.866C28.722 12.25 28.383 12.55 27.987 12.766C27.591 12.982 27.15 13.09 26.664 13.09ZM26.763 12.073C27.075 12.073 27.351 11.977 27.591 11.785C27.837 11.587 28.041 11.335 28.203 11.029C28.371 10.717 28.497 10.381 28.581 10.021C28.665 9.661 28.707 9.316 28.707 8.986C28.707 8.53 28.608 8.191 28.41 7.969C28.212 7.741 27.939 7.627 27.591 7.627C27.273 7.627 26.991 7.726 26.745 7.924C26.499 8.116 26.292 8.368 26.124 8.68C25.962 8.986 25.839 9.319 25.755 9.679C25.671 10.039 25.629 10.384 25.629 10.714C25.629 11.164 25.728 11.503 25.926 11.731C26.13 11.959 26.409 12.073 26.763 12.073Z" fill="black"/>
</svg>
