<svg width="39" height="21" viewBox="0 0 39 21" fill="none" xmlns="http://www.w3.org/2000/svg">
<rect width="39" height="21" rx="10.5" fill="#FDB24A"/>
<ellipse cx="28.906" cy="10.5" rx="9.17647" ry="9.56667" fill="white"/>
<path d="M3.11313 13.1333V8.04242H6.54352V8.92985H4.18948V10.1429H6.36703V11.0303H4.18948V12.2459H6.55347V13.1333H3.11313ZM11.5804 8.04242V13.1333H10.6507L8.43589 9.92914H8.39861V13.1333H7.32226V8.04242H8.26686L10.4643 11.2441H10.509V8.04242H11.5804ZM15.7684 9.68802C15.7336 9.56704 15.6847 9.46015 15.6218 9.36735C15.5588 9.27289 15.4817 9.19335 15.3906 9.12871C15.3011 9.06243 15.1984 9.01188 15.0824 8.97708C14.968 8.94228 14.8412 8.92488 14.702 8.92488C14.4418 8.92488 14.2132 8.98951 14.0159 9.11877C13.8204 9.24803 13.6679 9.43612 13.5586 9.68305C13.4492 9.92831 13.3945 10.2283 13.3945 10.5829C13.3945 10.9375 13.4484 11.2392 13.5561 11.4877C13.6638 11.7363 13.8163 11.9261 14.0135 12.057C14.2107 12.1862 14.4435 12.2509 14.712 12.2509C14.9556 12.2509 15.1636 12.2078 15.3359 12.1216C15.5099 12.0338 15.6425 11.9103 15.7336 11.7512C15.8264 11.5921 15.8728 11.404 15.8728 11.187L16.0916 11.2193H14.7791V10.4089H16.9094V11.0502C16.9094 11.4977 16.8149 11.8821 16.626 12.2036C16.4371 12.5235 16.1769 12.7704 15.8455 12.9444C15.514 13.1168 15.1346 13.2029 14.707 13.2029C14.2297 13.2029 13.8105 13.0977 13.4492 12.8872C13.0879 12.6751 12.8062 12.3743 12.604 11.9849C12.4035 11.5938 12.3032 11.1298 12.3032 10.5928C12.3032 10.1802 12.3629 9.81231 12.4822 9.48915C12.6032 9.16434 12.7722 8.88925 12.9893 8.66387C13.2064 8.43849 13.4591 8.26697 13.7475 8.14931C14.0358 8.03165 14.3482 7.97282 14.6846 7.97282C14.973 7.97282 15.2414 8.01508 15.49 8.0996C15.7386 8.18246 15.959 8.30012 16.1512 8.45258C16.3451 8.60504 16.5034 8.7865 16.626 8.99697C16.7487 9.20577 16.8274 9.43612 16.8622 9.68802H15.7684Z" fill="white"/>
<path d="M26.106 13.1333H24.3014V8.04242H26.121C26.633 8.04242 27.0738 8.14434 27.4434 8.34818C27.813 8.55035 28.0972 8.84119 28.296 9.22069C28.4966 9.60019 28.5968 10.0543 28.5968 10.5829C28.5968 11.1132 28.4966 11.5689 28.296 11.9501C28.0972 12.3312 27.8113 12.6237 27.4384 12.8276C27.0672 13.0314 26.6231 13.1333 26.106 13.1333ZM25.3777 12.2111H26.0613C26.3795 12.2111 26.6471 12.1548 26.8642 12.0421C27.083 11.9277 27.247 11.7512 27.3564 11.5126C27.4674 11.2723 27.5229 10.9624 27.5229 10.5829C27.5229 10.2067 27.4674 9.89931 27.3564 9.66068C27.247 9.42204 27.0838 9.24638 26.8667 9.13369C26.6496 9.021 26.382 8.96465 26.0638 8.96465H25.3777V12.2111ZM29.9075 13.1333H28.7541L30.5116 8.04242H31.8986L33.6536 13.1333H32.5002L31.225 9.20577H31.1852L29.9075 13.1333ZM29.8354 11.1323H32.5599V11.9725H29.8354V11.1323Z" fill="black"/>
</svg>
