<svg width="38" height="20" viewBox="0 0 38 20" fill="none" xmlns="http://www.w3.org/2000/svg">
<rect x="0.342773" y="0.0654907" width="37.0459" height="19.9345" rx="9.96725" fill="#181818"/>
<rect x="0.342773" y="0.0654907" width="37.0459" height="19.9345" rx="9.96725" fill="#181818"/>
<ellipse cx="9.75282" cy="10.0327" rx="8.71668" ry="9.08127" fill="white"/>
<path d="M8.12488 7.92383V13.0147H7.1952L4.98035 9.81055H4.94307V13.0147H3.86672V7.92383H4.81132L7.00876 11.1255H7.05351V7.92383H8.12488ZM8.93718 13.0147V7.92383H12.3676V8.81126H10.0135V10.0243H12.1911V10.9118H10.0135V12.1273H12.3775V13.0147H8.93718ZM15.1847 7.92383H16.2486V11.4735C16.2486 11.8017 16.1748 12.0867 16.0273 12.3287C15.8815 12.5706 15.6785 12.757 15.4183 12.888C15.1581 13.0189 14.8557 13.0843 14.511 13.0843C14.2044 13.0843 13.926 13.0305 13.6758 12.9228C13.4272 12.8134 13.23 12.6477 13.0842 12.4256C12.9383 12.2019 12.8662 11.921 12.8679 11.5829H13.9393C13.9426 11.7172 13.9699 11.8323 14.0213 11.9284C14.0743 12.0229 14.1464 12.0958 14.2376 12.1472C14.3304 12.1969 14.4398 12.2218 14.5657 12.2218C14.6983 12.2218 14.8101 12.1936 14.9013 12.1373C14.9941 12.0793 15.0645 11.9947 15.1126 11.8837C15.1606 11.7727 15.1847 11.636 15.1847 11.4735V7.92383Z" fill="#191919"/>
<path d="M25.7949 7.97458H26.8589V11.5243C26.8589 11.8524 26.7851 12.1375 26.6376 12.3794C26.4918 12.6214 26.2888 12.8078 26.0286 12.9387C25.7684 13.0696 25.466 13.1351 25.1213 13.1351C24.8147 13.1351 24.5363 13.0812 24.2861 12.9735C24.0375 12.8641 23.8403 12.6984 23.6944 12.4764C23.5486 12.2526 23.4765 11.9717 23.4782 11.6337H24.5496C24.5529 11.7679 24.5802 11.8831 24.6316 11.9792C24.6846 12.0737 24.7567 12.1466 24.8479 12.1979C24.9407 12.2477 25.05 12.2725 25.176 12.2725C25.3086 12.2725 25.4204 12.2443 25.5116 12.188C25.6044 12.13 25.6748 12.0455 25.7229 11.9345C25.7709 11.8234 25.7949 11.6867 25.7949 11.5243V7.97458ZM28.5493 13.0655H27.3959L29.1533 7.97458H30.5404L32.2954 13.0655H31.1419L29.8667 9.13793H29.827L28.5493 13.0655ZM28.4772 11.0644H31.2016V11.9046H28.4772V11.0644Z" fill="white"/>
</svg>
